<svg width="512" height="512" viewBox="0 0 512 512" fill="none" xmlns="http://www.w3.org/2000/svg">
<rect width="512" height="512" fill="#1E1E1E"/>
<rect width="512" height="512" fill="black"/>
<path d="M40.7929 352V157.389H95.9772C113.75 157.389 127.613 161.832 137.565 170.718C147.696 179.605 152.761 191.957 152.761 207.774C152.761 218.438 150.184 227.413 145.03 234.7C139.876 241.809 132.678 246.608 123.436 249.096C133.922 252.117 142.186 257.893 148.229 266.424C154.272 274.778 157.293 285.263 157.293 297.882C157.293 314.588 152.139 327.829 141.831 337.604C131.7 347.201 117.749 352 99.9761 352H40.7929ZM64.2529 240.298H95.7106C106.019 240.298 114.105 237.544 119.97 232.034C126.013 226.525 129.034 219.06 129.034 209.641C129.034 200.221 126.102 192.756 120.237 187.247C114.372 181.737 106.285 178.983 95.9772 178.983H64.2529V240.298ZM64.2529 330.406H97.3102C108.507 330.406 117.304 327.474 123.703 321.609C130.279 315.566 133.567 307.39 133.567 297.082C133.567 286.419 130.279 277.799 123.703 271.223C117.304 264.469 108.507 261.093 97.3102 261.093H64.2529V330.406ZM203.842 352V330.14H243.564V179.249H203.842V157.389H307.813V179.249H268.091V330.14H307.813V352H203.842ZM416.744 354.666C398.971 354.666 384.931 349.69 374.623 339.737C364.315 329.784 359.161 316.099 359.161 298.682V210.707C359.161 193.29 364.315 179.605 374.623 169.652C384.931 159.699 398.971 154.723 416.744 154.723C434.161 154.723 448.024 159.788 458.332 169.919C468.641 179.871 473.795 193.467 473.795 210.707H449.801C449.801 199.688 446.869 191.246 441.004 185.381C435.317 179.338 427.23 176.317 416.744 176.317C406.258 176.317 397.994 179.249 391.951 185.114C386.086 190.979 383.154 199.421 383.154 210.44V298.682C383.154 309.701 386.086 318.232 391.951 324.275C397.994 330.317 406.258 333.339 416.744 333.339C427.23 333.339 435.317 330.317 441.004 324.275C446.869 318.232 449.801 309.701 449.801 298.682V274.689H410.346V252.828H473.795V298.682C473.795 315.921 468.641 329.606 458.332 339.737C448.024 349.69 434.161 354.666 416.744 354.666Z" fill="white"/>
</svg>
